#!OML:ASF F:\VICON\USERDATA\INSTALL\rory3\rory3.ASF
:FULLY-SPECIFIED
:DEGREES
379
root -9.35207 6.57325 10.7555 -4.97886 -48.5255 -2.56097
lowerback 35.3299 6.68593 3.13209
upperback 11.3853 9.02775 3.91299
thorax -5.28048 4.01103 -0.659667
lowerneck -18.2532 -7.09219 -15.6237
upperneck 29.7212 -7.14358 5.81566
head 14.0493 -4.1198 3.7021
rclavicle 1.30403e-013 -3.33958e-014
rhumerus 16.9553 -5.55811 -92.0378
rradius 12.8194
rwrist 41.4851
rhand -50.2474 -3.10748
rfingers 7.12502
rthumb -22.8265 -31.7767
lclavicle 1.30403e-013 -3.33958e-014
lhumerus -37.607 -33.5283 89.9974
lradius 99.3552
lwrist -25.1349
lhand -58.6723 36.6865
lfingers 7.12502
lthumb -30.887 64.1095
rfemur -181.561 -73.7549 89.9464
rtibia 161.904
rfoot -9.50467 40.0711
rtoes -13.815
lfemur -198.543 79.9327 -109.872
ltibia 156.556
lfoot -39.8524 -52.4023
ltoes -30.8405
380
root -9.35376 6.63915 10.7444 -4.81003 -48.2297 -2.5892
lowerback 35.2112 6.63772 3.10593
upperback 11.274 8.97661 3.91675
thorax -5.36579 3.98859 -0.625605
lowerneck -18.5614 -7.0989 -15.5601
upperneck 29.8739 -7.06731 5.64745
head 14.1628 -4.10094 3.63345
rclavicle -5.56597e-014 3.81667e-014
rhumerus 17.0285 -5.39085 -91.8341
rradius 13.0169
rwrist 41.7671
rhand -50.4143 -3.53363
rfingers 7.12502
rthumb -22.9867 -32.183
lclavicle -5.56597e-014 3.81667e-014
lhumerus -37.4067 -33.6454 90.0754
lradius 98.8761
lwrist -24.8301
lhand -58.7579 36.0454
lfingers 7.12502
lthumb -30.9686 63.4529
rfemur -180.421 -73.9781 89.9422
rtibia 161.515
rfoot -9.85111 39.4012
rtoes -13.4503
lfemur -190.59 80.1747 -102.895
ltibia 156.162
lfoot -38.3843 -52.008
ltoes -28.8075
381
root -9.35688 6.7215 10.7271 -4.91278 -48.0767 -2.41666
lowerback 35.3504 6.70647 2.85401
upperback 11.1484 8.99927 3.91984
thorax -5.5882 3.98962 -0.524211
lowerneck -18.8887 -7.04485 -15.3755
upperneck 30.019 -6.85435 5.22807
head 14.2437 -4.0431 3.46626
rclavicle -9.54166e-015 -3.97569e-014
rhumerus 17.0639 -4.24726 -91.3088
rradius 13.1206
rwrist 39.7726
rhand -50.7125 -3.09521
rfingers 7.12502
rthumb -23.2729 -31.7087
lclavicle -9.54166e-015 -3.97569e-014
lhumerus -37.3101 -33.7027 90.1716
lradius 98.4913
lwrist -24.5252
lhand -58.4396 35.6098
lfingers 7.12502
lthumb -30.6651 63.0746
rfemur -178.655 -74.5169 89.4045
rtibia 161.029
rfoot -10.6612 38.86
rtoes -13.487
lfemur -184.799 80.587 -98.5224
ltibia 155.663
lfoot -39.1188 -50.5703
ltoes -28.7198
382
root -9.35271 6.80884 10.713 -4.76008 -47.8788 -2.51038
lowerback 35.4544 6.6342 2.89517
upperback 11.0166 8.93484 3.83951
thorax -5.74987 3.95756 -0.62187
lowerneck -18.9507 -6.93753 -15.1146
upperneck 29.7142 -6.68885 5.01326
head 14.0788 -3.96094 3.36022
rclavicle -1.11319e-013 7.63333e-014
rhumerus 17.211 -3.81928 -91.1436
rradius 13.1012
rwrist 39.739
rhand -50.3441 -3.56967
rfingers 7.12502
rthumb -22.9193 -32.2274
lclavicle -1.11319e-013 7.63333e-014
lhumerus -37.316 -33.7536 90.153
lradius 98.1513
lwrist -24.2001
lhand -58.0887 35.1336
lfingers 7.12502
lthumb -30.3305 62.6605
rfemur -175.701 -74.9835 87.8817
rtibia 160.431
rfoot -12.4609 38.3045
rtoes -14.4108
lfemur -176.861 80.6736 -91.8003
ltibia 155.171
lfoot -39.3976 -48.8676
ltoes -29.339
383
root -9.34553 6.90246 10.696 -4.26456 -47.6559 -2.93113
lowerback 35.5728 6.49927 3.12623
upperback 10.8047 8.8703 3.81502
thorax -5.98705 3.92381 -0.763905
lowerneck -19.0291 -6.84099 -14.9882
upperneck 29.5447 -6.53668 4.91584
head 13.9917 -3.88839 3.32435
rclavicle 3.57812e-014 -6.20208e-014
rhumerus 17.2592 -3.17402 -90.9462
rradius 13.0997
rwrist 38.6058
rhand -51.2062 -1.716
rfingers 7.12502
rthumb -23.7463 -30.2688
lclavicle 3.57812e-014 -6.20208e-014
lhumerus -37.3948 -33.8001 90.2926
lradius 97.7187
lwrist -23.9116
lhand -58.0387 35.1722
lfingers 7.12502
lthumb -30.2828 62.7079
rfemur -171.645 -75.3029 85.6281
rtibia 159.75
rfoot -13.8136 37.6391
rtoes -14.4305
lfemur -167.373 80.3057 -83.2008
ltibia 154.644
lfoot -40.139 -46.4124
ltoes -31.2317
384
root -9.3412 7.01391 10.6662 -3.52293 -47.3496 -3.64551
lowerback 35.8481 6.36611 3.48118
upperback 10.4889 8.86845 3.8584
thorax -6.2617 3.91342 -0.892285
lowerneck -19.4386 -6.82421 -14.9206
upperneck 29.7496 -6.44465 4.84585
head 14.1516 -3.8507 3.29765
rclavicle -7.55382e-014 -2.22639e-014
rhumerus 17.4355 -3.47549 -91.0018
rradius 13.2987
rwrist 39.588
rhand -51.2095 -2.30657
rfingers 7.12502
rthumb -23.7495 -30.859
lclavicle -7.55382e-014 -2.22639e-014
lhumerus -37.295 -33.993 90.4432
lradius 97.2481
lwrist -23.5335
lhand -58.1489 35.2614
lfingers 7.12502
lthumb -30.3879 62.7777
rfemur -166.718 -75.5629 83.1403
rtibia 158.937
rfoot -14.6272 36.7537
rtoes -13.7118
lfemur -155.902 79.6821 -72.0689
ltibia 153.939
lfoot -37.7693 -46.7914
ltoes -28.6463
385
root -9.33754 7.14331 10.6309 -2.74455 -46.958 -4.41128
lowerback 35.9461 6.17719 3.90635
upperback 10.3568 8.80278 3.90912
thorax -6.39106 3.87949 -1.04447
lowerneck -19.9484 -6.82151 -14.9306
upperneck 29.8829 -6.37241 4.9207
head 14.3139 -3.80703 3.33721
rclavicle -6.99722e-014 4.92986e-014
rhumerus 17.6677 -2.71732 -90.6459
rradius 13.5366
rwrist 38.9925
rhand -51.4389 -1.97751
rfingers 7.12502
rthumb -23.9695 -30.5012
lclavicle -6.99722e-014 4.92986e-014
lhumerus -36.9908 -34.129 90.4056
lradius 96.8745
lwrist -23.179
lhand -57.9257 34.9439
lfingers 7.12502
lthumb -30.175 62.4993
rfemur -160.94 -75.6318 80.07
rtibia 157.966
rfoot -15.0491 35.6103
rtoes -13.3671
lfemur -141.087 78.0859 -57.0842
ltibia 153.019
lfoot -29.8545 -49.9675
ltoes -20.3828
386
root -9.33537 7.27208 10.6104 -2.82218 -46.6927 -4.18556
lowerback 35.9886 6.11254 3.77419
upperback 10.3417 8.6706 3.78371
thorax -6.42396 3.81856 -1.06577
lowerneck -20.333 -6.76465 -14.9287
upperneck 29.8465 -6.23581 4.97991
head 14.3649 -3.73353 3.38097
rclavicle -2.38542e-015 -1.59028e-015
rhumerus 17.849 -1.28169 -90.0555
rradius 13.9797
rwrist 37.5831
rhand -51.2113 -2.78821
rfingers 7.12502
rthumb -23.7513 -31.3404
lclavicle -2.38542e-015 -1.59028e-015
lhumerus -36.7971 -34.1576 90.3568
lradius 96.5485
lwrist -22.8728
lhand -57.7221 34.0839
lfingers 7.12502
lthumb -29.9807 61.6747
rfemur -157.123 -76.0053 77.4866
rtibia 157.066
rfoot -15.4358 35.3402
rtoes -13.8819
lfemur -131.523 76.3887 -48.799
ltibia 152.274
lfoot -32.2827 -46.842
ltoes -26.0335
387
root -9.33451 7.39208 10.6016 -3.44712 -46.5443 -3.33967
lowerback 36.0745 6.18261 3.25255
upperback 10.3526 8.55983 3.54723
thorax -6.47837 3.767 -1.01626
lowerneck -20.6299 -6.65664 -14.7088
upperneck 29.7788 -6.06356 4.8732
head 14.3617 -3.64307 3.3283
rclavicle -1.24837e-013 8.26944e-014
rhumerus 18.0548 -0.429371 -89.7159
rradius 14.246
rwrist 36.5856
rhand -51.4447 -1.88486
rfingers 7.12502
rthumb -23.9751 -30.4078
lclavicle -1.24837e-013 8.26944e-014
lhumerus -36.6765 -34.2477 90.3441
lradius 96.1716
lwrist -22.6527
lhand -57.6765 33.5546
lfingers 7.12502
lthumb -29.9373 61.1532
rfemur -153.96 -76.5936 74.46
rtibia 156.284
rfoot -16.771 35.6647
rtoes -15.3079
lfemur -126.684 76.0988 -46.6778
ltibia 151.603
lfoot -33.5153 -44.4762
ltoes -24.6149
388
root -9.33023 7.52049 10.5901 -3.94726 -46.3828 -2.63991
lowerback 36.226 6.22221 2.83715
upperback 10.3171 8.45058 3.29876
thorax -6.58887 3.71472 -1.03962
lowerneck -20.8435 -6.53649 -14.4164
upperneck 29.6186 -5.9126 4.76344
head 14.299 -3.55239 3.25831
rclavicle 1.19271e-014 4.13472e-014
rhumerus 18.2619 1.28629 -89.1384
rradius 14.5251
rwrist 33.3031
rhand -52.3577 0.717953
rfingers 7.12502
rthumb -24.8503 -27.687
lclavicle 1.19271e-014 4.13472e-014
lhumerus -36.5696 -34.4549 90.3164
lradius 95.7013
lwrist -22.6649
lhand -57.6248 33.6421
lfingers 7.12502
lthumb -29.8878 61.2496
rfemur -149.188 -76.8954 70.1544
rtibia 155.353
rfoot -17.9428 35.6851
rtoes -16.3725
lfemur -120.16 75.641 -42.5955
ltibia 150.558
lfoot -51.468 -21.4929
ltoes -51.233
389
root -9.32389 7.66641 10.5713 -4.65222 -46.2094 -1.69957
lowerback 36.4852 6.31757 2.28892
upperback 10.3119 8.35385 3.00071
thorax -6.71124 3.66684 -1.05676
lowerneck -21.0232 -6.4446 -14.155
upperneck 29.2866 -5.79757 4.67109
head 14.1611 -3.47318 3.19138
rclavicle -1.82882e-014 7.79236e-014
rhumerus 18.6395 1.41206 -89.0473
rradius 15.1868
rwrist 34.6496
rhand -50.8909 -2.00842
rfingers 7.12502
rthumb -23.4439 -30.6002
lclavicle -1.82882e-014 7.79236e-014
lhumerus -36.3532 -34.8593 90.2313
lradius 95.2223
lwrist -22.5338
lhand -57.5369 33.5816
lfingers 7.12502
lthumb -29.8041 61.2041
rfemur -144.063 -77.1068 65.4753
rtibia 154.286
rfoot -18.9836 35.6111
rtoes -18.1774
lfemur -111.897 73.8173 -36.682
ltibia 149.33
lfoot -27.3271 -46.3122
ltoes -10.3686
